<?xml version="1.0" encoding="UTF-8" standalone="no" ?>
<!DOCTYPE svg PUBLIC "-//W3C//DTD SVG 1.1//EN" "http://www.w3.org/Graphics/SVG/1.1/DTD/svg11.dtd">
<svg xmlns="http://www.w3.org/2000/svg" xmlns:xlink="http://www.w3.org/1999/xlink" version="1.1" width="1080" height="1080" viewBox="0 0 1080 1080" xml:space="preserve">
<desc>Created with Fabric.js 5.2.4</desc>
<defs>
</defs>
<rect x="0" y="0" width="100%" height="100%" fill="transparent"></rect>
<g transform="matrix(1 0 0 1 540 540)" id="1f5a6419-ae11-4c33-9f55-b4fce1125f7a"  >
</g>
<g transform="matrix(1 0 0 1 540 540)" id="a2f332eb-814e-4d46-b874-fe41134952a5"  >
<rect style="stroke: none; stroke-width: 1; stroke-dasharray: none; stroke-linecap: butt; stroke-dashoffset: 0; stroke-linejoin: miter; stroke-miterlimit: 4; fill: rgb(255,255,255); fill-rule: nonzero; opacity: 1; visibility: hidden;" vector-effect="non-scaling-stroke"  x="-540" y="-540" rx="0" ry="0" width="1080" height="1080" />
</g>
<g transform="matrix(1 0 0 1 529.84 517.97)"  >
<path style="stroke: none; stroke-width: 1; stroke-dasharray: none; stroke-linecap: butt; stroke-dashoffset: 0; stroke-linejoin: miter; stroke-miterlimit: 4; fill: rgb(0,0,0); fill-rule: evenodd; opacity: 1;" vector-effect="non-scaling-stroke"  transform=" translate(-38.28, -50)" d="M 17.188 31.25 C 15.4614 31.25 14.062999999999999 32.6484 14.062999999999999 34.375 L 14.062999999999999 65.625 C 14.062999999999999 67.3516 15.4614 68.75 17.188 68.75 L 59.376000000000005 68.75 C 61.1026 68.75 62.501000000000005 67.3516 62.501000000000005 65.625 L 62.501000000000005 34.375 C 62.501000000000005 32.6484 61.1026 31.25 59.376000000000005 31.25 z M 48.438 37.5 L 48.438 62.5 L 56.2505 62.5 L 56.2505 37.5 z M 42.188 37.5 L 34.3755 37.5 L 34.3755 62.5 L 42.188 62.5 z M 28.126000000000005 37.5 L 28.126000000000005 62.5 L 20.313500000000005 62.5 L 20.313500000000005 37.5 z" stroke-linecap="round" />
</g>
<g transform="matrix(1 0 0 1 541.56 517.96)"  >
<path style="stroke: none; stroke-width: 1; stroke-dasharray: none; stroke-linecap: butt; stroke-dashoffset: 0; stroke-linejoin: miter; stroke-miterlimit: 4; fill: rgb(0,0,0); fill-rule: evenodd; opacity: 1;" vector-effect="non-scaling-stroke"  transform=" translate(-50, -50)" d="M 15.625 20.312 C 8.7227 20.312 3.125 25.9097 3.125 32.812 L 3.125 67.187 C 3.125 74.0893 8.7227 79.687 15.625 79.687 L 75 79.687 C 81.375 79.687 86.633 74.9175 87.402 68.749 L 87.499656 68.749 C 92.675456 68.749 96.874656 64.54979999999999 96.874656 59.373999999999995 L 96.874656 40.623999999999995 C 96.874656 35.44819999999999 92.675456 31.248999999999995 87.499656 31.248999999999995 L 87.402 31.248999999999995 C 86.63247 25.080999999999996 81.3747 20.310999999999993 75 20.310999999999993 z M 9.375 32.812 C 9.375 29.3589 12.1719 26.561999999999998 15.625 26.561999999999998 L 75 26.561999999999998 C 78.4531 26.561999999999998 81.25 29.3589 81.25 32.812 L 81.25 34.3745 C 81.25 36.101099999999995 82.6484 37.4995 84.375 37.4995 L 87.5 37.4995 C 89.2266 37.4995 90.625 38.8979 90.625 40.6245 L 90.625 59.3745 C 90.625 61.101099999999995 89.2266 62.4995 87.5 62.4995 L 84.375 62.4995 C 82.6484 62.4995 81.25 63.8979 81.25 65.6245 L 81.25 67.187 C 81.25 70.6401 78.4531 73.437 75 73.437 L 15.625 73.437 C 12.1719 73.437 9.375 70.6401 9.375 67.187 z" stroke-linecap="round" />
</g>
</svg>