<svg xmlns="http://www.w3.org/2000/svg" version="1.1" viewBox="-5.0 -10.0 110.0 135.0">
 <g fill-rule="evenodd">
  <path d="m14.062 34.375c0-1.7266 1.3984-3.125 3.125-3.125h56.25c1.7266 0 3.125 1.3984 3.125 3.125v31.25c0 1.7266-1.3984 3.125-3.125 3.125h-56.25c-1.7266 0-3.125-1.3984-3.125-3.125zm42.188 28.125v-25h-7.8125v25zm6.25 0h7.8125v-25h-7.8125zm-28.125-25h7.8125v25h-7.8125zm-6.25 25v-25h-7.8125v25z"/>
  <path d="m3.125 32.812c0-6.9023 5.5977-12.5 12.5-12.5h59.375c6.375 0 11.633 4.7695 12.402 10.938h0.097656c5.1758 0 9.375 4.1992 9.375 9.375v18.75c0 5.1758-4.1992 9.375-9.375 9.375h-0.097656c-0.76953 6.168-6.0273 10.938-12.402 10.938h-59.375c-6.9023 0-12.5-5.5977-12.5-12.5zm12.5-6.25c-3.4531 0-6.25 2.7969-6.25 6.25v34.375c0 3.4531 2.7969 6.25 6.25 6.25h59.375c3.4531 0 6.25-2.7969 6.25-6.25v-1.5625c0-1.7266 1.3984-3.125 3.125-3.125h3.125c1.7266 0 3.125-1.3984 3.125-3.125v-18.75c0-1.7266-1.3984-3.125-3.125-3.125h-3.125c-1.7266 0-3.125-1.3984-3.125-3.125v-1.5625c0-3.4531-2.7969-6.25-6.25-6.25z"/>
 </g>
<text x="0.0" y="117.5" font-size="5.0" font-weight="bold" font-family="Arbeit Regular, Helvetica, Arial-Unicode, Arial, Sans-serif" fill="#000000">Created by HideMaru</text><text x="0.0" y="122.5" font-size="5.0" font-weight="bold" font-family="Arbeit Regular, Helvetica, Arial-Unicode, Arial, Sans-serif" fill="#000000">from Noun Project</text></svg>